<svg xmlns="http://www.w3.org/2000/svg" width="33.929" height="34" viewBox="405.894 473.039 33.929 34"><path d="M437.656 502.446c-.729-.91-3.879-3.272-7.887-4.431-3.361-.971-3.497-3.839-3.497-3.839s1.673-.874 2.922-1.969c1.953-1.713 2.697-3.822 2.295-6.305-.401-2.483-1.462-5.817-1.924-6.86-.463-1.043-2.127-6.003-7.194-6.003-5.426 0-6.995 3.814-7.988 5.862-1.385 2.859-1.792 6.934-1.514 11.404.168 2.707.294 3.703-.126 5.859.399.07.812.099 1.225.099 2.272 0 4.557-.89 4.557-.89s-.003 1.813-2.764 2.869c-4.217 1.611-6.147 3.322-6.989 4.129-1.458 1.89-2.878 4.668-2.878 4.668h33.929s-.387-2.377-2.167-4.593zm-19.197-9.698c-1.192-2.146-1.537-3.605-1.554-9.433 3.64-.284 5.889-3.781 6.635-5.151 1.221 1.018 3.324 3.073 3.324 4.516v7.526c0 3.227-3.749 4.302-4.756 4.302-1.077.001-2.981-.559-3.649-1.76zm-.277 1.742c-.021.008-2.155.826-4.214.826l-.123-.001c.202-1.464.133-2.526.017-4.322l-.048-.747c-.288-4.638.203-8.418 1.421-10.932l.141-.292c.487-1.018 1.094-2.285 2.157-3.296 1.23-1.171 2.813-1.74 4.839-1.74 1.724 0 3.193.672 4.366 1.999 1.001 1.131 1.542 2.437 1.833 3.139l.128.303c.435.98 1.47 4.241 1.856 6.627.353 2.181-.297 3.961-1.986 5.442-.439.385-.942.745-1.396 1.042.392-.656.637-1.43.637-2.332v-7.526c0-2.401-3.718-5.303-4.143-5.626l-.473-.36-.245.542c-.023.051-2.381 5.151-6.519 5.151h-.473v.473c0 6.424.356 7.979 1.674 10.348.246.442.596.808.999 1.108l-.448.174zm-8.703 8.515c.641-.612 2.457-2.288 6.62-3.879 3.331-1.272 3.373-3.651 3.373-3.751v-.552c.926.445 1.945.633 2.636.633.761 0 2.063-.344 3.231-1.089.077.683.61 3.531 4.167 4.559 3.812 1.102 6.805 3.358 7.411 4.114a10.247 10.247 0 0 1 1.666 3.053h-31.096c.524-.917 1.255-2.124 1.992-3.088z"/></svg>