<svg xmlns="http://www.w3.org/2000/svg" width="31.912" height="34" viewBox="406.66 470.349 31.912 34"><path d="M435.349 479.014h-5.813v-3.563c0-1.697-.915-4.947-4.402-5.101h-1.265a.49.49 0 0 0-.191.039 4.497 4.497 0 0 0-1.299.338 4.634 4.634 0 0 0-1.687-.377h-1.264a.483.483 0 0 0-.191.039c-3.149.368-4.003 3.43-4.003 5.062v3.563h-6.2l-2.374 25.336h31.912l-3.223-25.336zm-11.255-7.686h1.019c3.393.15 3.445 3.962 3.446 4.124v3.563h-3.463v-3.563c0-1.115-.401-2.897-1.663-4.035a3.81 3.81 0 0 1 .661-.089zm-1.708.513c1.69 1.078 1.731 3.482 1.731 3.61v3.563h-3.463v-3.562c.001-.129.041-2.533 1.732-3.611zm-6.173 3.611c.001-.163.054-3.969 3.44-4.124h1.019c.238.01.456.043.663.087-1.257 1.137-1.659 2.92-1.659 4.036v3.563h-3.463v-3.562zm-8.479 27.919l2.191-23.378h5.31v2.844a.488.488 0 1 0 .978 0v-2.844h7.905v2.844a.488.488 0 1 0 .978 0v-2.844h5.697l-1.095 11.689-1.096 11.689h-20.868zm22.946-11.689l1.096-11.689h2.712l2.975 23.378h-7.877l1.094-11.689z"/></svg>